<?xml version="1.0" standalone="no"?><!DOCTYPE svg PUBLIC "-//W3C//DTD SVG 1.1//EN" "http://www.w3.org/Graphics/SVG/1.1/DTD/svg11.dtd"><svg t="1585924648135" class="icon" viewBox="0 0 1024 1024" version="1.1" xmlns="http://www.w3.org/2000/svg" p-id="4804" width="16" height="16" xmlns:xlink="http://www.w3.org/1999/xlink"><defs><style type="text/css"></style></defs><path d="M745.87 457.64c1.49-38.52-0.26-156.02-69.71-232.23-19.07-20.92-41.88-37.17-67.81-48.31-28.41-12.21-60.95-18.39-96.69-18.39-35.27 0-67.42 6.15-95.57 18.28-25.71 11.08-48.38 27.25-67.4 48.08-71.59 78.38-72.77 201.38-71.2 239.89-29.12 38.03-49.01 83-59.19 133.85-8.86 44.27-8.38 83.35-6.41 108.33 0.87 11.02 5.89 21.07 14.15 28.31a42.264 42.264 0 0 0 27.85 10.48c9.71 0 19.21-3.43 26.76-9.67 0.93-0.77 1.86-1.56 2.79-2.38 7.45 14.12 17.03 26.86 26.71 37.73-9.82 5.36-18.05 12.35-24.59 20.91-10.49 13.73-12.23 31.9-4.56 47.43 7.73 15.63 23.34 25.34 40.75 25.34h383.11c15.83 0 30.27-8.04 38.64-21.49 8.3-13.34 9.11-29.69 2.18-43.73-5.99-12.15-15.09-22.14-26.82-29.59 8.85-11.42 16.32-23.92 22.38-37.4 7.54 6.21 16.92 9.61 26.69 9.61 21.77 0 39.8-16.33 41.95-37.98 13.49-135.97-41.61-219.34-64.01-247.07z m35.79 244.25c-0.76 7.62-7.12 12.43-13.75 12.43-3.27 0-6.6-1.17-9.37-3.75-4-3.74-8.18-8.32-12.16-13.88-2.69-3.76-6.72-5.54-10.7-5.54-5.38 0-10.68 3.25-12.48 9.23-6.16 20.48-17.82 45.64-39.88 67.55-6.26 6.22-3.71 16.88 4.74 19.45 11.8 3.6 25.06 10.8 32.18 25.22 5.54 11.22-2.89 24.34-15.4 24.34h-383.1c-14.01 0-22.18-16.08-13.67-27.21 6.3-8.25 16.9-16.18 34.67-20.15 9.16-2.05 12.18-13.62 5.26-19.95-16.75-15.33-38.66-39.51-47.06-67.04-1.8-5.89-7.06-9.13-12.43-9.13-3.73 0-7.51 1.56-10.22 4.88-4.62 5.65-9.9 11.26-15.71 16.07-2.64 2.18-5.7 3.17-8.69 3.17-6.73 0-13.14-4.99-13.75-12.67-3.45-43.79-2.78-147.4 66.29-230.8 0 0-26.06-287.06 205.24-287.06s205.24 280.46 205.24 280.46 80.1 79.85 64.75 234.38z" p-id="4805"></path><path d="M669.16 512.63c-37.67 12.16-103.88 24.8-205.42 15.96-61.32-5.34-106.84-16.15-107.29-16.26-7.61-1.83-15.26 2.86-17.09 10.47-1.83 7.61 2.86 15.26 10.47 17.09 1.29 0.31 22.31 5.31 55.14 10.25v86.31c0 7.83 6.34 14.17 14.17 14.17s14.17-6.34 14.17-14.17v-82.5c8.7 1.03 17.89 2 27.49 2.84 24.17 2.12 47.34 3.17 69.47 3.17 56.16 0 105.61-6.81 147.6-20.36 7.45-2.41 11.54-10.39 9.13-17.84-2.4-7.44-10.39-11.53-17.84-9.13z" p-id="4806"></path></svg>